<?xml version="1.0" encoding="utf-8"?><svg version="1.1" preserveAspectRatio="xMidYMid" xml:space="preserve" width="287.38649999999995pt" height="90.15441pt" viewBox="166.9256 80.00329 287.38649999999995 90.15441" xmlns="http://www.w3.org/2000/svg" xmlns:xlink="http://www.w3.org/1999/xlink"><g transform="matrix(1 0 0 -1 0 790)"><g stroke="#000000" fill="none" fill-rule="evenodd" stroke-width="1" stroke-linecap="round" stroke-linejoin="round" stroke-miterlimit="3" letter-spacing="normal" font-weight="normal" font-style="normal" baseline-shift="0"><g transform="matrix(0.75 0 0 0.75 0 790.549988)"><g transform="matrix(0.959811 0 0 -0.959927 0 0)" font-family="ArialUnicode" font-size="10"><path fill="#DFDFDF" stroke="none" d="M246 131C246 126 246 126 251 126H419C424 126 424 126 424 131v90C424 226 424 226 419 226H251C246 226 246 226 246 221V131" /><path fill="#FFFFFF" stroke="none" d="M243 128C243 123 243 123 248 123H416C421 123 421 123 421 128v90C421 223 421 223 416 223H248C243 223 243 223 243 218V128" /><path d="M243 128C243 123 243 123 248 123H416C421 123 421 123 421 128v90C421 223 421 223 416 223H248C243 223 243 223 243 218V128m0 0C243 123 243 123 248 123H416C421 123 421 123 421 128v90C421 223 421 223 416 223H248C243 223 243 223 243 218V128" /><rect x="243" y="123" width="178" height="100" /><text transform="matrix(1 0 0 1 284 132)" fill="#000000" font-weight="bold" stroke="none"><tspan dx="0 " x="0" y="9">RDFObjectService</tspan></text><path d="M243 149H421" /><text transform="matrix(1 0 0 1 248 153)" fill="#3C3C3C" stroke="none"><tspan dx="0 " x="0" y="9">+ </tspan></text><text transform="matrix(1 0 0 1 265 153)" fill="#3C3C3C" stroke="none"><tspan dx="0 " x="0" y="9">getObject(String): Response</tspan></text><text transform="matrix(1 0 0 1 248 166)" fill="#3C3C3C" stroke="none"><tspan dx="0 " x="0" y="9">+ </tspan></text><text transform="matrix(1 0 0 1 265 166)" fill="#3C3C3C" stroke="none"><tspan dx="0 " x="0" y="9">createObject(): Response</tspan></text><text transform="matrix(1 0 0 1 248 179)" fill="#3C3C3C" stroke="none"><tspan dx="0 " x="0" y="9">+ </tspan></text><text transform="matrix(1 0 0 1 265 179)" fill="#3C3C3C" stroke="none"><tspan dx="0 " x="0" y="9">removeObject(String): Response</tspan></text><text transform="matrix(1 0 0 1 248 192)" fill="#3C3C3C" stroke="none"><tspan dx="0 " x="0" y="9">+ </tspan></text><text transform="matrix(1 0 0 1 265 192)" fill="#3C3C3C" stroke="none"><tspan dx="0 " x="0" y="9">updateObject(String): Reponse</tspan></text><text transform="matrix(1 0 0 1 248 205)" fill="#3C3C3C" stroke="none"><tspan dx="0 " x="0" y="9">+ </tspan></text><text transform="matrix(1 0 0 1 265 205)" fill="#3C3C3C" stroke="none"><tspan dx="0 " x="0" y="9">getAllObjects(): Response</tspan></text><path fill="#DFDFDF" stroke="none" d="M463 131C463 126 463 126 468 126H615C620 126 620 126 620 131v59C620 195 620 195 615 195H468C463 195 463 195 463 190V131" /><path fill="#FFFFFF" stroke="none" d="M460 128C460 123 460 123 465 123H612C617 123 617 123 617 128v59C617 192 617 192 612 192H465C460 192 460 192 460 187V128" /><path d="M460 128C460 123 460 123 465 123H612C617 123 617 123 617 128v59C617 192 617 192 612 192H465C460 192 460 192 460 187V128m0 0C460 123 460 123 465 123H612C617 123 617 123 617 128v59C617 192 617 192 612 192H465C460 192 460 192 460 187V128" /><rect x="460" y="123" width="157" height="69" /><text transform="matrix(1 0 0 1 501 132)" fill="#000000" font-weight="bold" stroke="none"><tspan dx="0 " x="0" y="9">ServerService</tspan></text><path d="M460 149H617" /><text transform="matrix(1 0 0 1 465 153)" fill="#3C3C3C" stroke="none"><tspan dx="0 " x="0" y="9">+ </tspan></text><text transform="matrix(1 0 0 1 482 153)" fill="#3C3C3C" stroke="none"><tspan dx="0 " x="0" y="9">reloadDefinitions: Response</tspan></text></g></g></g></g></svg>