<?xml version="1.0" encoding="utf-8"?><svg version="1.1" preserveAspectRatio="xMidYMid" xml:space="preserve" width="370.1699pt" height="233.35195000000002pt" viewBox="71.0237 41.00985 370.1699 233.35195000000002" xmlns="http://www.w3.org/2000/svg" xmlns:xlink="http://www.w3.org/1999/xlink"><g transform="matrix(1 0 0 -1 0 841)"><g stroke="#000000" fill="none" fill-rule="evenodd" stroke-width="1" stroke-linecap="round" stroke-linejoin="round" stroke-miterlimit="3" letter-spacing="normal" font-weight="normal" font-style="normal" baseline-shift="0"><g transform="matrix(0.75 0 0 0.75 0 841.650024)"><g transform="matrix(0.957863 0 0 -0.959611 0 0)" font-family="ArialUnicode" font-size="10"><path d="M307 129v26M312.94 161.85C312.98 161.57 313 161.28 313 161C313 157.69 310.31 155 307 155C303.69 155 301 157.69 301 161C301 161.33 301.03 161.66 301.08 161.99" /><path fill="#DFDFDF" stroke="none" d="M261 77C261 72 261 72 266 72h99C370 72 370 72 370 77v49C370 131 370 131 365 131H266C261 131 261 131 261 126V77" /><path fill="#FFC0CB" stroke="none" d="M258 74C258 69 258 69 263 69h99C367 69 367 69 367 74v49C367 128 367 128 362 128H263C258 128 258 128 258 123V74" /><path d="M258 74C258 69 258 69 263 69h99C367 69 367 69 367 74v49C367 128 367 128 362 128H263C258 128 258 128 258 123V74m0 0C258 69 258 69 263 69h99C367 69 367 69 367 74v49C367 128 367 128 362 128H263C258 128 258 128 258 123V74" /><rect x="258" y="69" width="109" height="59" /><text transform="matrix(1 0 0 1 277 75)" fill="#000000" stroke="none"><tspan dx="0 " x="0" y="9">«frontend»</tspan></text><text transform="matrix(1 0 0 1 277 88)" fill="#000000" font-weight="bold" stroke="none"><tspan dx="0 " x="0" y="9">Web view</tspan></text><path fill="#FFC0CB" stroke="none" d="M352 79C352 74 352 74 356 74h2C362 74 362 74 362 79v6C362 90 362 90 358 90h-2C352 90 352 90 352 85V79" /><path d="M352 79C352 74 352 74 356 74h2C362 74 362 74 362 79v6C362 90 362 90 358 90h-2C352 90 352 90 352 85V79" /><path fill="#FFC0CB" stroke="none" d="M349 79C349 76 349 76 351 76h2C355 76 355 76 355 79V77C355 80 355 80 353 80h-2C349 80 349 80 349 77v2" /><path d="M349 79C349 76 349 76 351 76h2C355 76 355 76 355 79V77C355 80 355 80 353 80h-2C349 80 349 80 349 77v2" /><path fill="#FFC0CB" stroke="none" d="M349 86C349 83 349 83 351 83h2C355 83 355 83 355 86V84C355 87 355 87 353 87h-2C349 87 349 87 349 84v2" /><path d="M349 86C349 83 349 83 351 83h2C355 83 355 83 355 86V84C355 87 355 87 353 87h-2C349 87 349 87 349 84v2" /><path d="M307 129v26M312.94 161.85C312.98 161.57 313 161.28 313 161C313 157.69 310.31 155 307 155C303.69 155 301 157.69 301 161C301 161.33 301.03 161.66 301.08 161.99" /><path fill="#DFDFDF" stroke="none" d="M261 317C261 312 261 312 266 312h99C370 312 370 312 370 317v49C370 371 370 371 365 371H266C261 371 261 371 261 366V317" /><path fill="#FFC0CB" stroke="none" d="M258 314C258 309 258 309 263 309h99C367 309 367 309 367 314v49C367 368 367 368 362 368H263C258 368 258 368 258 363V314" /><path d="M258 314C258 309 258 309 263 309h99C367 309 367 309 367 314v49C367 368 367 368 362 368H263C258 368 258 368 258 363V314m0 0C258 309 258 309 263 309h99C367 309 367 309 367 314v49C367 368 367 368 362 368H263C258 368 258 368 258 363V314" /><rect x="258" y="309" width="109" height="59" /><text transform="matrix(1 0 0 1 277 315)" fill="#000000" stroke="none"><tspan dx="0 " x="0" y="9">«backend»</tspan></text><text transform="matrix(1 0 0 1 272 328)" fill="#000000" font-weight="bold" stroke="none"><tspan dx="0 " x="0" y="9">SystemCore</tspan></text><path fill="#FFC0CB" stroke="none" d="M352 319C352 314 352 314 356 314h2C362 314 362 314 362 319v6C362 330 362 330 358 330h-2C352 330 352 330 352 325v-6" /><path d="M352 319C352 314 352 314 356 314h2C362 314 362 314 362 319v6C362 330 362 330 358 330h-2C352 330 352 330 352 325v-6" /><path fill="#FFC0CB" stroke="none" d="M349 319C349 316 349 316 351 316h2C355 316 355 316 355 319v-2C355 320 355 320 353 320h-2C349 320 349 320 349 317v2" /><path d="M349 319C349 316 349 316 351 316h2C355 316 355 316 355 319v-2C355 320 355 320 353 320h-2C349 320 349 320 349 317v2" /><path fill="#FFC0CB" stroke="none" d="M349 326C349 323 349 323 351 323h2C355 323 355 323 355 326v-2C355 327 355 327 353 327h-2C349 327 349 327 349 324v2" /><path d="M349 326C349 323 349 323 351 323h2C355 323 355 323 355 326v-2C355 327 355 327 353 327h-2C349 327 349 327 349 324v2" /><path d="M307 309V283" /><path fill="#DFC1FE" stroke="none" d="M301 276C301 272.69 303.69 270 307 270C310.31 270 313 272.69 313 276C313 279.31 310.31 282 307 282C303.69 282 301 279.31 301 276" /><path d="M301 276C301 272.69 303.69 270 307 270C310.31 270 313 272.69 313 276C313 279.31 310.31 282 307 282C303.69 282 301 279.31 301 276M301 276C301 272.69 303.69 270 307 270C310.31 270 313 272.69 313 276C313 279.31 310.31 282 307 282C303.69 282 301 279.31 301 276" /><text transform="matrix(1 0 0 1 274 270)" fill="#000000" stroke="none"><tspan dx="0 " x="0" y="9">API</tspan></text><path fill="#DFDFDF" stroke="none" d="M113 138V248H228V150L216 138H113" /><path fill="#E3FBEB" d="M110 135V245H225V147L213 135H110" /><path fill="#C0D8C8" d="M213 135v12h12L213 135" /></g><g transform="matrix(0.957863 0 0 0.959611 0 0)" font-family="SegoeUIUnicode" font-size="10"><text transform="matrix(1 0 0 -1 0 0)" fill="#000000" stroke="none"><tspan dx="0 " x="115" y="159">Webová cást je oddelena</tspan></text><text transform="matrix(1 0 0 -1 0 0)" fill="#000000" stroke="none"><tspan dx="0 " x="115" y="171">od samotného jádra </tspan></text><text transform="matrix(1 0 0 -1 0 0)" fill="#000000" stroke="none"><tspan dx="0 " x="115" y="183">aplikace. S jádrem </tspan></text><text transform="matrix(1 0 0 -1 0 0)" fill="#000000" stroke="none"><tspan dx="0 " x="115" y="195">systému komunikuje jen </tspan></text><text transform="matrix(1 0 0 -1 0 0)" fill="#000000" stroke="none"><tspan dx="0 " x="115" y="207">skrze REST API.</tspan></text></g><g transform="matrix(0.957863 0 0 -0.959611 0 0)" font-family="ArialUnicode" font-size="10"><path d="M496 129v26M501.94 161.85C501.98 161.57 502 161.28 502 161C502 157.69 499.31 155 496 155C492.69 155 490 157.69 490 161C490 161.33 490.03 161.66 490.08 161.99" /><path fill="#DFDFDF" stroke="none" d="M444 77C444 72 444 72 449 72H577C582 72 582 72 582 77v49C582 131 582 131 577 131H449C444 131 444 131 444 126V77" /><path fill="#FFC0CB" stroke="none" d="M441 74C441 69 441 69 446 69H574C579 69 579 69 579 74v49C579 128 579 128 574 128H446C441 128 441 128 441 123V74" /><path d="M441 74C441 69 441 69 446 69H574C579 69 579 69 579 74v49C579 128 579 128 574 128H446C441 128 441 128 441 123V74m0 0C441 69 441 69 446 69H574C579 69 579 69 579 74v49C579 128 579 128 574 128H446C441 128 441 128 441 123V74" /><rect x="441" y="69" width="138" height="59" /><text transform="matrix(1 0 0 1 468 75)" fill="#000000" stroke="none"><tspan dx="0 " x="0" y="9">«application»</tspan></text><text transform="matrix(1 0 0 1 450 88)" fill="#000000" font-weight="bold" stroke="none"><tspan dx="0 " x="0" y="9">ExternalApplication</tspan></text><path fill="#FFC0CB" stroke="none" d="M564 79C564 74 564 74 568 74h2C574 74 574 74 574 79v6C574 90 574 90 570 90h-2C564 90 564 90 564 85V79" /><path d="M564 79C564 74 564 74 568 74h2C574 74 574 74 574 79v6C574 90 574 90 570 90h-2C564 90 564 90 564 85V79" /><path fill="#FFC0CB" stroke="none" d="M561 79C561 76 561 76 563 76h2C567 76 567 76 567 79V77C567 80 567 80 565 80h-2C561 80 561 80 561 77v2" /><path d="M561 79C561 76 561 76 563 76h2C567 76 567 76 567 79V77C567 80 567 80 565 80h-2C561 80 561 80 561 77v2" /><path fill="#FFC0CB" stroke="none" d="M561 86C561 83 561 83 563 83h2C567 83 567 83 567 86V84C567 87 567 87 565 87h-2C561 87 561 87 561 84v2" /><path d="M561 86C561 83 561 83 563 83h2C567 83 567 83 567 86V84C567 87 567 87 565 87h-2C561 87 561 87 561 84v2" /><path d="M496 129v26M501.94 161.85C501.98 161.57 502 161.28 502 161C502 157.69 499.31 155 496 155C492.69 155 490 157.69 490 161C490 161.33 490.03 161.66 490.08 161.99" /><path stroke-dasharray="3,4" d="M485 226L475 226" /><path d="M471 225h-3m-4 0l-3 -1m-4 0h-3m-4 0l-3 -1m-4 0h-3m-4 -1h-3m-4 0h-3m-4 -1h-3m-4 0l-3 -1m-4 0h-3" /><path fill="#DFDFDF" stroke="none" d="M488 195v79H603V207L591 195H488" /><path fill="#E3FBEB" d="M485 192v79H600V204L588 192H485" /><path fill="#C0D8C8" d="M588 192v12h12L588 192" /></g><g transform="matrix(0.957863 0 0 0.959611 0 0)" font-family="SegoeUIUnicode" font-size="10"><text transform="matrix(1 0 0 -1 0 0)" fill="#000000" stroke="none"><tspan dx="0 " x="490" y="216">Znázornení propojení </tspan></text><text transform="matrix(1 0 0 -1 0 0)" fill="#000000" stroke="none"><tspan dx="0 " x="490" y="228">libovolné externí aplikace</tspan></text><text transform="matrix(1 0 0 -1 0 0)" fill="#000000" stroke="none"><tspan dx="0 " x="490" y="240">pres REST API.</tspan></text></g><g transform="matrix(0.957863 0 0 -0.959611 0 0)"><path d="M266 128l-3 1m-4 3l-3 2m-4 2l-3 2m-4 2l-3 2m-4 3l-3 1m-4 3l-3 2" /><path d="M313 272l7 -4m4 -2l7 -4m4 -3l7 -4m4 -2l7 -5m4 -2l7 -4m4 -3l7 -4m4 -2l7 -5m4 -2l7 -4m4 -3l7 -4m4 -2l7 -5m4 -2l7 -4m4 -3l7 -4m4 -2l7 -5m4 -2l7 -4m4 -3l7 -4m4 -2l7 -4m4 -3l1 -1" /><path d="M313 272l10 -12m-10 12l15 -3" /><path stroke-dasharray="7,4" d="M307 271L307 168" /><path d="M307 271l-5 -15m5 15l5 -15" /></g></g></g></g></svg>