<?xml version="1.0" encoding="utf-8"?><svg version="1.1" preserveAspectRatio="xMidYMid" xml:space="preserve" width="385.28726pt" height="170.78825pt" viewBox="79.10284 62.00465 385.28726 170.78825" xmlns="http://www.w3.org/2000/svg" xmlns:xlink="http://www.w3.org/1999/xlink"><g transform="matrix(1 0 0 -1 0 790)"><g stroke="#000000" fill="none" fill-rule="evenodd" stroke-width="1" stroke-linecap="round" stroke-linejoin="round" stroke-miterlimit="3" letter-spacing="normal" font-weight="normal" font-style="normal" baseline-shift="0"><g transform="matrix(0.75 0 0 0.75 0 790.549988)"><g transform="matrix(0.959811 0 0 -0.959927 0 0)" font-family="ArialUnicode" font-size="10"><path fill="#DFDFDF" stroke="none" d="M423 106C423 101 423 101 428 101H626C631 101 631 101 631 106V243C631 248 631 248 626 248H428C423 248 423 248 423 243V106" /><path fill="#FFFFFF" stroke="none" d="M420 103C420 98 420 98 425 98H623C628 98 628 98 628 103V240C628 245 628 245 623 245H425C420 245 420 245 420 240V103" /><path d="M420 103C420 98 420 98 425 98H623C628 98 628 98 628 103V240C628 245 628 245 623 245H425C420 245 420 245 420 240V103m0 0C420 98 420 98 425 98H623C628 98 628 98 628 103V240C628 245 628 245 623 245H425C420 245 420 245 420 240V103" /><rect x="420" y="98" width="208" height="147" /><text transform="matrix(1 0 0 1 496 107)" fill="#000000" font-weight="bold" stroke="none"><tspan dx="0 " x="0" y="9">RDFLoader</tspan></text><path d="M420 124H628" /><text transform="matrix(1 0 0 1 425 128)" fill="#3C3C3C" stroke="none"><tspan dx="0 " x="0" y="9">- </tspan></text><text transform="matrix(1 0 0 1 442 128)" fill="#3C3C3C" stroke="none"><tspan dx="0 " x="0" y="9">model: Model</tspan></text><text transform="matrix(1 0 0 1 425 141)" fill="#3C3C3C" stroke="none"><tspan dx="0 " x="0" y="9">- </tspan></text><text transform="matrix(1 0 0 1 442 141)" fill="#3C3C3C" stroke="none"><tspan dx="0 " x="0" y="9">filePath: String</tspan></text><text transform="matrix(1 0 0 1 425 154)" fill="#3C3C3C" stroke="none"><tspan dx="0 " x="0" y="9">- </tspan></text><text transform="matrix(1 0 0 1 442 154)" fill="#3C3C3C" stroke="none"><tspan dx="0 " x="0" y="9">obj: RDFObject</tspan></text><text transform="matrix(1 0 0 1 425 167)" fill="#3C3C3C" stroke="none"><tspan dx="0 " x="0" y="9">- </tspan></text><text transform="matrix(1 0 0 1 442 167)" fill="#3C3C3C" stroke="none"><tspan dx="0 " x="0" y="9">resource: String</tspan></text><path d="M420 184H628" /><text transform="matrix(1 0 0 1 425 188)" fill="#3C3C3C" stroke="none"><tspan dx="0 " x="0" y="9">+ </tspan></text><text transform="matrix(1 0 0 1 442 188)" fill="#3C3C3C" stroke="none"><tspan dx="0 " x="0" y="9">RDFLoader(Model, String): RDFLoader</tspan></text><text transform="matrix(1 0 0 1 425 201)" fill="#3C3C3C" stroke="none"><tspan dx="0 " x="0" y="9">+ </tspan></text><text transform="matrix(1 0 0 1 442 201)" fill="#3C3C3C" stroke="none"><tspan dx="0 " x="0" y="9">createObject(RDFObject): RDFObject</tspan></text><text transform="matrix(1 0 0 1 425 214)" fill="#3C3C3C" stroke="none"><tspan dx="0 " x="0" y="9">- </tspan></text><text transform="matrix(1 0 0 1 442 214)" fill="#3C3C3C" stroke="none"><tspan dx="0 " x="0" y="9">prepare(): void</tspan></text><text transform="matrix(1 0 0 1 425 227)" fill="#3C3C3C" stroke="none"><tspan dx="0 " x="0" y="9">- </tspan></text><text transform="matrix(1 0 0 1 442 227)" fill="#3C3C3C" stroke="none"><tspan dx="0 " x="0" y="9">getDefinition(): void</tspan></text><path fill="#DFDFDF" stroke="none" d="M124 106C124 101 124 101 129 101H369C374 101 374 101 374 106V308C374 313 374 313 369 313H129C124 313 124 313 124 308V106" /><path fill="#FFFFFF" stroke="none" d="M121 103C121 98 121 98 126 98H366C371 98 371 98 371 103V305C371 310 371 310 366 310H126C121 310 121 310 121 305V103" /><path d="M121 103C121 98 121 98 126 98H366C371 98 371 98 371 103V305C371 310 371 310 366 310H126C121 310 121 310 121 305V103m0 0C121 98 121 98 126 98H366C371 98 371 98 371 103V305C371 310 371 310 366 310H126C121 310 121 310 121 305V103" /><rect x="121" y="98" width="250" height="212" /><text transform="matrix(1 0 0 1 194 107)" fill="#000000" font-weight="bold" stroke="none"><tspan dx="0 " x="0" y="9">RDFObjectContainer</tspan></text><path d="M121 124H371" /><text transform="matrix(1 0 0 1 126 128)" fill="#3C3C3C" stroke="none"><tspan dx="0 " x="0" y="9">- </tspan></text><text transform="matrix(1 0 0 1 143 128)" fill="#3C3C3C" stroke="none"><tspan dx="0 " x="0" y="9">instance: RDFObjectContainer</tspan></text><text transform="matrix(1 0 0 1 126 141)" fill="#3C3C3C" stroke="none"><tspan dx="0 " x="0" y="9">- </tspan></text><text transform="matrix(1 0 0 1 143 141)" fill="#3C3C3C" stroke="none"><tspan dx="0 " x="0" y="9">objects: Map&lt;String, RDFObject&gt;</tspan></text><text transform="matrix(1 0 0 1 126 154)" fill="#3C3C3C" stroke="none"><tspan dx="0 " x="0" y="9">- </tspan></text><text transform="matrix(1 0 0 1 143 154)" fill="#3C3C3C" stroke="none"><tspan dx="0 " x="0" y="9">objectsByPriority: LinkedList&lt;RDFObject&gt;</tspan></text><text transform="matrix(1 0 0 1 126 167)" fill="#3C3C3C" stroke="none"><tspan dx="0 " x="0" y="9">- </tspan></text><text transform="matrix(1 0 0 1 143 167)" fill="#3C3C3C" stroke="none"><tspan dx="0 " x="0" y="9">usedRegex: List&lt;String&gt;</tspan></text><path d="M121 184H371" /><text transform="matrix(1 0 0 1 126 188)" fill="#3C3C3C" stroke="none"><tspan dx="0 " x="0" y="9">+ </tspan></text><text transform="matrix(1 0 0 1 143 188)" fill="#3C3C3C" stroke="none"><tspan dx="0 " x="0" y="9">getInstance(): RDFObjectContainer</tspan></text><text transform="matrix(1 0 0 1 126 201)" fill="#3C3C3C" stroke="none"><tspan dx="0 " x="0" y="9">+ </tspan></text><text transform="matrix(1 0 0 1 143 201)" fill="#3C3C3C" stroke="none"><tspan dx="0 " x="0" y="9">getObject(String): RDFObject</tspan></text><text transform="matrix(1 0 0 1 126 214)" fill="#3C3C3C" stroke="none"><tspan dx="0 " x="0" y="9">+ </tspan></text><text transform="matrix(1 0 0 1 143 214)" fill="#3C3C3C" stroke="none"><tspan dx="0 " x="0" y="9">getObjectByUriRegexMatch(String): RDFObject</tspan></text><text transform="matrix(1 0 0 1 126 227)" fill="#3C3C3C" stroke="none"><tspan dx="0 " x="0" y="9">+ </tspan></text><text transform="matrix(1 0 0 1 143 227)" fill="#3C3C3C" stroke="none"><tspan dx="0 " x="0" y="9">getAll(): List&lt;RDFObject&gt;</tspan></text><text transform="matrix(1 0 0 1 126 240)" fill="#3C3C3C" stroke="none"><tspan dx="0 " x="0" y="9">+ </tspan></text><text transform="matrix(1 0 0 1 143 240)" fill="#3C3C3C" stroke="none"><tspan dx="0 " x="0" y="9">validateObject(RDFObject, RDFObject): int</tspan></text><text transform="matrix(1 0 0 1 126 253)" fill="#3C3C3C" stroke="none"><tspan dx="0 " x="0" y="9">+ </tspan></text><text transform="matrix(1 0 0 1 143 253)" fill="#3C3C3C" stroke="none"><tspan dx="0 " x="0" y="9">removeAll(): int</tspan></text><text transform="matrix(1 0 0 1 126 266)" fill="#3C3C3C" stroke="none"><tspan dx="0 " x="0" y="9">+ </tspan></text><text transform="matrix(1 0 0 1 143 266)" fill="#3C3C3C" stroke="none"><tspan dx="0 " x="0" y="9">updateObject(RDFObject, String): int</tspan></text><text transform="matrix(1 0 0 1 126 279)" fill="#3C3C3C" stroke="none"><tspan dx="0 " x="0" y="9">+ </tspan></text><text transform="matrix(1 0 0 1 143 279)" fill="#3C3C3C" stroke="none"><tspan dx="0 " x="0" y="9">removeObject(String, boolean): int</tspan></text></g></g></g></g></svg>