<?xml version="1.0" encoding="utf-8"?><svg version="1.1" preserveAspectRatio="xMidYMid" xml:space="preserve" width="341.73579pt" height="217.58469pt" viewBox="88.46101 37.52651 341.73579 217.58469" xmlns="http://www.w3.org/2000/svg" xmlns:xlink="http://www.w3.org/1999/xlink"><g transform="matrix(1 0 0 -1 0 790)"><g stroke="#000000" fill="none" fill-rule="evenodd" stroke-width="1" stroke-linecap="round" stroke-linejoin="round" stroke-miterlimit="3" letter-spacing="normal" font-weight="normal" font-style="normal" baseline-shift="0"><g transform="matrix(0.75 0 0 0.75 0 790.549988)"><g transform="matrix(0.959811 0 0 -0.959927 0 0)" font-family="ArialUnicode" font-size="10"><path fill="#DFDFDF" stroke="none" d="M137 72C137 67 137 67 142 67H325C330 67 330 67 330 72V339C330 344 330 344 325 344H142C137 344 137 344 137 339V72" /><path fill="#FFFFFF" stroke="none" d="M134 69C134 64 134 64 139 64H322C327 64 327 64 327 69V336C327 341 327 341 322 341H139C134 341 134 341 134 336V69" /><path d="M134 69C134 64 134 64 139 64H322C327 64 327 64 327 69V336C327 341 327 341 322 341H139C134 341 134 341 134 336V69m0 0C134 64 134 64 139 64H322C327 64 327 64 327 69V336C327 341 327 341 322 341H139C134 341 134 341 134 336V69" /><rect x="134" y="64" width="193" height="277" /><text transform="matrix(1 0 0 1 203 73)" fill="#000000" font-weight="bold" stroke="none"><tspan dx="0 " x="0" y="9">RDFObject</tspan></text><path d="M134 90H327" /><text transform="matrix(1 0 0 1 139 94)" fill="#3C3C3C" stroke="none"><tspan dx="0 " x="0" y="9">- </tspan></text><text transform="matrix(1 0 0 1 156 94)" fill="#3C3C3C" stroke="none"><tspan dx="0 " x="0" y="9">rdfTemplate: Template</tspan></text><text transform="matrix(1 0 0 1 139 107)" fill="#3C3C3C" stroke="none"><tspan dx="0 " x="0" y="9">- </tspan></text><text transform="matrix(1 0 0 1 156 107)" fill="#3C3C3C" stroke="none"><tspan dx="0 " x="0" y="9">htmlTemplate: Template</tspan></text><text transform="matrix(1 0 0 1 139 120)" fill="#3C3C3C" stroke="none"><tspan dx="0 " x="0" y="9">- </tspan></text><text transform="matrix(1 0 0 1 156 120)" fill="#3C3C3C" stroke="none"><tspan dx="0 " x="0" y="9">pattern: Pattern</tspan></text><text transform="matrix(1 0 0 1 139 133)" fill="#3C3C3C" stroke="none"><tspan dx="0 " x="0" y="9">- </tspan></text><text transform="matrix(1 0 0 1 156 133)" fill="#3C3C3C" stroke="none"><tspan dx="0 " x="0" y="9">name: String</tspan></text><text transform="matrix(1 0 0 1 139 146)" fill="#3C3C3C" stroke="none"><tspan dx="0 " x="0" y="9">- </tspan></text><text transform="matrix(1 0 0 1 156 146)" fill="#3C3C3C" stroke="none"><tspan dx="0 " x="0" y="9">uriRegex: String</tspan></text><text transform="matrix(1 0 0 1 139 159)" fill="#3C3C3C" stroke="none"><tspan dx="0 " x="0" y="9">- </tspan></text><text transform="matrix(1 0 0 1 156 159)" fill="#3C3C3C" stroke="none"><tspan dx="0 " x="0" y="9">type: String</tspan></text><text transform="matrix(1 0 0 1 139 172)" fill="#3C3C3C" stroke="none"><tspan dx="0 " x="0" y="9">- </tspan></text><text transform="matrix(1 0 0 1 156 172)" fill="#3C3C3C" stroke="none"><tspan dx="0 " x="0" y="9">template: String</tspan></text><text transform="matrix(1 0 0 1 139 185)" fill="#3C3C3C" stroke="none"><tspan dx="0 " x="0" y="9">- </tspan></text><text transform="matrix(1 0 0 1 156 185)" fill="#3C3C3C" stroke="none"><tspan dx="0 " x="0" y="9">priority: int</tspan></text><text transform="matrix(1 0 0 1 139 198)" fill="#3C3C3C" stroke="none"><tspan dx="0 " x="0" y="9">- </tspan></text><text transform="matrix(1 0 0 1 156 198)" fill="#3C3C3C" stroke="none"><tspan dx="0 " x="0" y="9">url: String</tspan></text><text transform="matrix(1 0 0 1 139 211)" fill="#3C3C3C" stroke="none"><tspan dx="0 " x="0" y="9">- </tspan></text><text transform="matrix(1 0 0 1 156 211)" fill="#3C3C3C" stroke="none"><tspan dx="0 " x="0" y="9">proxyParam: String</tspan></text><text transform="matrix(1 0 0 1 139 224)" fill="#3C3C3C" stroke="none"><tspan dx="0 " x="0" y="9">- </tspan></text><text transform="matrix(1 0 0 1 156 224)" fill="#3C3C3C" stroke="none"><tspan dx="0 " x="0" y="9">group: String</tspan></text><text transform="matrix(1 0 0 1 139 237)" fill="#3C3C3C" stroke="none"><tspan dx="0 " x="0" y="9">- </tspan></text><text transform="matrix(1 0 0 1 156 237)" fill="#3C3C3C" stroke="none"><tspan dx="0 " x="0" y="9">fullName: String</tspan></text><text transform="matrix(1 0 0 1 139 250)" fill="#3C3C3C" stroke="none"><tspan dx="0 " x="0" y="9">- </tspan></text><text transform="matrix(1 0 0 1 156 250)" fill="#3C3C3C" stroke="none"><tspan dx="0 " x="0" y="9">definitionTTL: String</tspan></text><text transform="matrix(1 0 0 1 139 263)" fill="#3C3C3C" stroke="none"><tspan dx="0 " x="0" y="9">- </tspan></text><text transform="matrix(1 0 0 1 156 263)" fill="#3C3C3C" stroke="none"><tspan dx="0 " x="0" y="9">filePath: String</tspan></text><path d="M134 280H327" /><text transform="matrix(1 0 0 1 139 284)" fill="#3C3C3C" stroke="none"><tspan dx="0 " x="0" y="9">+ </tspan></text><text transform="matrix(1 0 0 1 156 284)" fill="#3C3C3C" stroke="none"><tspan dx="0 " x="0" y="9">isValidObjectType(String): boolean</tspan></text><text transform="matrix(1 0 0 1 139 297)" fill="#3C3C3C" stroke="none"><tspan dx="0 " x="0" y="9">+ </tspan></text><text transform="matrix(1 0 0 1 156 297)" fill="#3C3C3C" stroke="none"><tspan dx="0 " x="0" y="9">createTTL(): String</tspan></text><text transform="matrix(1 0 0 1 139 310)" fill="#3C3C3C" stroke="none"><tspan dx="0 " x="0" y="9">+ </tspan></text><text transform="matrix(1 0 0 1 156 310)" fill="#3C3C3C" stroke="none"><tspan dx="0 " x="0" y="9">compilePattern(): void</tspan></text><text transform="matrix(1 0 0 1 139 323)" fill="#3C3C3C" stroke="none"><tspan dx="0 " x="0" y="9">+ </tspan></text><text transform="matrix(1 0 0 1 156 323)" fill="#3C3C3C" stroke="none"><tspan dx="0 " x="0" y="9">RDFObject(RDFObject): RDFObject</tspan></text><path fill="#DFDFDF" stroke="none" d="M347 72C347 67 347 67 352 67H567C572 67 572 67 572 72v85C572 162 572 162 567 162H352C347 162 347 162 347 157V72" /><path fill="#FFFFFF" stroke="none" d="M344 69C344 64 344 64 349 64H564C569 64 569 64 569 69v85C569 159 569 159 564 159H349C344 159 344 159 344 154V69" /><path d="M344 69C344 64 344 64 349 64H564C569 64 569 64 569 69v85C569 159 569 159 564 159H349C344 159 344 159 344 154V69m0 0C344 64 344 64 349 64H564C569 64 569 64 569 69v85C569 159 569 159 564 159H349C344 159 344 159 344 154V69" /><rect x="344" y="64" width="225" height="95" /><text transform="matrix(1 0 0 1 434 73)" fill="#000000" font-weight="bold" stroke="none"><tspan dx="0 " x="0" y="9">Template</tspan></text><path d="M344 90H569" /><text transform="matrix(1 0 0 1 349 94)" fill="#3C3C3C" stroke="none"><tspan dx="0 " x="0" y="9">- </tspan></text><text transform="matrix(1 0 0 1 366 94)" fill="#3C3C3C" stroke="none"><tspan dx="0 " x="0" y="9">template: String</tspan></text><text transform="matrix(1 0 0 1 349 107)" fill="#3C3C3C" stroke="none"><tspan dx="0 " x="0" y="9">- </tspan></text><text transform="matrix(1 0 0 1 366 107)" fill="#3C3C3C" stroke="none"><tspan dx="0 " x="0" y="9">placeholders: List&lt;TemplatePlaceholder&gt;</tspan></text><path d="M344 124H569" /><text transform="matrix(1 0 0 1 349 128)" fill="#3C3C3C" stroke="none"><tspan dx="0 " x="0" y="9">+ </tspan></text><text transform="matrix(1 0 0 1 366 128)" fill="#3C3C3C" stroke="none"><tspan dx="0 " x="0" y="9">preproccess(): void</tspan></text><text transform="matrix(1 0 0 1 349 141)" fill="#3C3C3C" stroke="none"><tspan dx="0 " x="0" y="9">+ </tspan></text><text transform="matrix(1 0 0 1 366 141)" fill="#3C3C3C" stroke="none"><tspan dx="0 " x="0" y="9">fillTemplate(String, List&lt;String&gt;): String</tspan></text><path fill="#DFDFDF" stroke="none" d="M347 213C347 208 347 208 352 208H578C583 208 583 208 583 213V324C583 329 583 329 578 329H352C347 329 347 329 347 324V213" /><path fill="#FFFFFF" stroke="none" d="M344 210C344 205 344 205 349 205H575C580 205 580 205 580 210V321C580 326 580 326 575 326H349C344 326 344 326 344 321V210" /><path d="M344 210C344 205 344 205 349 205H575C580 205 580 205 580 210V321C580 326 580 326 575 326H349C344 326 344 326 344 321V210m0 0C344 205 344 205 349 205H575C580 205 580 205 580 210V321C580 326 580 326 575 326H349C344 326 344 326 344 321V210" /><rect x="344" y="205" width="236" height="121" /><text transform="matrix(1 0 0 1 409 214)" fill="#000000" font-weight="bold" stroke="none"><tspan dx="0 " x="0" y="9">TemplatePlaceholder</tspan></text><path d="M344 231H580" /><text transform="matrix(1 0 0 1 349 235)" fill="#3C3C3C" stroke="none"><tspan dx="0 " x="0" y="9">- </tspan></text><text transform="matrix(1 0 0 1 366 235)" fill="#3C3C3C" stroke="none"><tspan dx="0 " x="0" y="9">uriParameterNumber: int</tspan></text><text transform="matrix(1 0 0 1 349 248)" fill="#3C3C3C" stroke="none"><tspan dx="0 " x="0" y="9">- </tspan></text><text transform="matrix(1 0 0 1 366 248)" fill="#3C3C3C" stroke="none"><tspan dx="0 " x="0" y="9">fullUrl: boolean</tspan></text><text transform="matrix(1 0 0 1 349 261)" fill="#3C3C3C" stroke="none"><tspan dx="0 " x="0" y="9">- </tspan></text><text transform="matrix(1 0 0 1 366 261)" fill="#3C3C3C" stroke="none"><tspan dx="0 " x="0" y="9">regex: String</tspan></text><text transform="matrix(1 0 0 1 349 274)" fill="#3C3C3C" stroke="none"><tspan dx="0 " x="0" y="9">- </tspan></text><text transform="matrix(1 0 0 1 366 274)" fill="#3C3C3C" stroke="none"><tspan dx="0 " x="0" y="9">start: int</tspan></text><text transform="matrix(1 0 0 1 349 287)" fill="#3C3C3C" stroke="none"><tspan dx="0 " x="0" y="9">- </tspan></text><text transform="matrix(1 0 0 1 366 287)" fill="#3C3C3C" stroke="none"><tspan dx="0 " x="0" y="9">end: int</tspan></text><path d="M344 304H580" /><text transform="matrix(1 0 0 1 349 308)" fill="#3C3C3C" stroke="none"><tspan dx="0 " x="0" y="9">+ </tspan></text><text transform="matrix(1 0 0 1 366 308)" fill="#3C3C3C" stroke="none"><tspan dx="0 " x="0" y="9">TemplatePlaceholder(int, int, int, String): int</tspan></text></g></g></g></g></svg>