<?xml version="1.0" encoding="utf-8"?><svg version="1.1" preserveAspectRatio="xMidYMid" xml:space="preserve" width="249.2341pt" height="244.94262999999998pt" viewBox="141.7305 36.80657 249.2341 244.94262999999998" xmlns="http://www.w3.org/2000/svg" xmlns:xlink="http://www.w3.org/1999/xlink"><g transform="matrix(1 0 0 -1 0 790)"><g stroke="#000000" fill="none" fill-rule="evenodd" stroke-width="1" stroke-linecap="round" stroke-linejoin="round" stroke-miterlimit="3" letter-spacing="normal" font-weight="normal" font-style="normal" baseline-shift="0"><g transform="matrix(0.75 0 0 0.75 0 790.549988)"><g transform="matrix(0.959811 0 0 -0.959927 0 0)" font-family="ArialUnicode" font-size="10"><path fill="#DFDFDF" stroke="none" d="M222 213C222 208 222 208 227 208H512C517 208 517 208 517 213V376C517 381 517 381 512 381H227C222 381 222 381 222 376V213" /><path fill="#FFFFFF" stroke="none" d="M219 210C219 205 219 205 224 205H509C514 205 514 205 514 210V373C514 378 514 378 509 378H224C219 378 219 378 219 373V210" /><path d="M219 210C219 205 219 205 224 205H509C514 205 514 205 514 210V373C514 378 514 378 509 378H224C219 378 219 378 219 373V210m0 0C219 205 219 205 224 205H509C514 205 514 205 514 210V373C514 378 514 378 509 378H224C219 378 219 378 219 373V210" /><rect x="219" y="205" width="295" height="173" /><text transform="matrix(1 0 0 1 346 214)" fill="#000000" font-weight="bold" stroke="none"><tspan dx="0 " x="0" y="9">Request</tspan></text><path d="M219 231H514" /><text transform="matrix(1 0 0 1 224 235)" fill="#3C3C3C" stroke="none"><tspan dx="0 " x="0" y="9">- </tspan></text><text transform="matrix(1 0 0 1 241 235)" fill="#3C3C3C" stroke="none"><tspan dx="0 " x="0" y="9">uriParameters: List&lt;String&gt;</tspan></text><text transform="matrix(1 0 0 1 224 248)" fill="#3C3C3C" stroke="none"><tspan dx="0 " x="0" y="9">- </tspan></text><text transform="matrix(1 0 0 1 241 248)" fill="#3C3C3C" stroke="none"><tspan dx="0 " x="0" y="9">object: RDFObject</tspan></text><text transform="matrix(1 0 0 1 224 261)" fill="#3C3C3C" stroke="none"><tspan dx="0 " x="0" y="9">- </tspan></text><text transform="matrix(1 0 0 1 241 261)" fill="#3C3C3C" stroke="none"><tspan dx="0 " x="0" y="9">uri: String</tspan></text><text transform="matrix(1 0 0 1 224 274)" fill="#3C3C3C" stroke="none"><tspan dx="0 " x="0" y="9">- </tspan></text><text transform="matrix(1 0 0 1 241 274)" fill="#3C3C3C" stroke="none"><tspan dx="0 " x="0" y="9">produces: String</tspan></text><path d="M219 291H514" /><text transform="matrix(1 0 0 1 224 295)" fill="#3C3C3C" stroke="none"><tspan dx="0 " x="0" y="9">+ </tspan></text><text transform="matrix(1 0 0 1 241 295)" fill="#3C3C3C" stroke="none"><tspan dx="0 " x="0" y="9">Request(RDFObject, String, List&lt;String&gt;, String): Request</tspan></text><text transform="matrix(1 0 0 1 224 308)" fill="#3C3C3C" stroke="none"><tspan dx="0 " x="0" y="9">+ </tspan></text><text transform="matrix(1 0 0 1 241 308)" fill="#3C3C3C" stroke="none"><tspan dx="0 " x="0" y="9">execute(): Response</tspan></text><text transform="matrix(1 0 0 1 224 321)" fill="#3C3C3C" stroke="none"><tspan dx="0 " x="0" y="9">- </tspan></text><text transform="matrix(1 0 0 1 241 321)" fill="#3C3C3C" stroke="none"><tspan dx="0 " x="0" y="9">executeRDFTemplate(Model, String): Response</tspan></text><text transform="matrix(1 0 0 1 224 334)" fill="#3C3C3C" stroke="none"><tspan dx="0 " x="0" y="9">- </tspan></text><text transform="matrix(1 0 0 1 241 334)" fill="#3C3C3C" stroke="none"><tspan dx="0 " x="0" y="9">executeConstruct(Model, String): Response</tspan></text><text transform="matrix(1 0 0 1 224 347)" fill="#3C3C3C" stroke="none"><tspan dx="0 " x="0" y="9">- </tspan></text><text transform="matrix(1 0 0 1 241 347)" fill="#3C3C3C" stroke="none"><tspan dx="0 " x="0" y="9">executeProxy(Model, String): Response</tspan></text><text transform="matrix(1 0 0 1 224 360)" fill="#3C3C3C" stroke="none"><tspan dx="0 " x="0" y="9">- </tspan></text><text transform="matrix(1 0 0 1 241 360)" fill="#3C3C3C" stroke="none"><tspan dx="0 " x="0" y="9">executeSparqlEndpoint(Model, String): Response</tspan></text><path fill="#DFDFDF" stroke="none" d="M211 71C211 66 211 66 216 66H521C526 66 526 66 526 71V187C526 192 526 192 521 192H216C211 192 211 192 211 187V71" /><path fill="#FFFFFF" stroke="none" d="M208 68C208 63 208 63 213 63H518C523 63 523 63 523 68V184C523 189 523 189 518 189H213C208 189 208 189 208 184V68" /><path d="M208 68C208 63 208 63 213 63H518C523 63 523 63 523 68V184C523 189 523 189 518 189H213C208 189 208 189 208 184V68m0 0C208 63 208 63 213 63H518C523 63 523 63 523 68V184C523 189 523 189 518 189H213C208 189 208 189 208 184V68" /><rect x="208" y="63" width="315" height="126" /><text transform="matrix(1 0 0 1 314 72)" fill="#000000" font-weight="bold" stroke="none"><tspan dx="0 " x="0" y="9">RDFObjectPublisher</tspan></text><path d="M208 89H523" /><text transform="matrix(1 0 0 1 213 93)" fill="#3C3C3C" stroke="none"><tspan dx="0 " x="0" y="9">+ </tspan></text><text transform="matrix(1 0 0 1 230 93)" fill="#3C3C3C" stroke="none"><tspan dx="0 " x="0" y="9">handleObjectRequestTurtle(HttpServletRequest): Response</tspan></text><text transform="matrix(1 0 0 1 213 106)" fill="#3C3C3C" stroke="none"><tspan dx="0 " x="0" y="9">+ </tspan></text><text transform="matrix(1 0 0 1 230 106)" fill="#3C3C3C" stroke="none"><tspan dx="0 " x="0" y="9">handleObjectRequestN3(HttpServletRequest): Response</tspan></text><text transform="matrix(1 0 0 1 213 119)" fill="#3C3C3C" stroke="none"><tspan dx="0 " x="0" y="9">+ </tspan></text><text transform="matrix(1 0 0 1 230 119)" fill="#3C3C3C" stroke="none"><tspan dx="0 " x="0" y="9">handleObjectRequestJSONLD(HttpServletRequest): Response</tspan></text><text transform="matrix(1 0 0 1 213 132)" fill="#3C3C3C" stroke="none"><tspan dx="0 " x="0" y="9">+ </tspan></text><text transform="matrix(1 0 0 1 230 132)" fill="#3C3C3C" stroke="none"><tspan dx="0 " x="0" y="9">handleObjectRequestRDFXML(HttpServletRequest): Response</tspan></text><text transform="matrix(1 0 0 1 213 145)" fill="#3C3C3C" stroke="none"><tspan dx="0 " x="0" y="9">+ </tspan></text><text transform="matrix(1 0 0 1 230 145)" fill="#3C3C3C" stroke="none"><tspan dx="0 " x="0" y="9">handleObjectRequestHTML(HttpServletRequest): Response</tspan></text><text transform="matrix(1 0 0 1 213 158)" fill="#3C3C3C" stroke="none"><tspan dx="0 " x="0" y="9">- </tspan></text><text transform="matrix(1 0 0 1 230 158)" fill="#3C3C3C" stroke="none"><tspan dx="0 " x="0" y="9">buildObjectRequest(HttpServletRequest, String): Request</tspan></text><text transform="matrix(1 0 0 1 213 171)" fill="#3C3C3C" stroke="none"><tspan dx="0 " x="0" y="9">- </tspan></text><text transform="matrix(1 0 0 1 230 171)" fill="#3C3C3C" stroke="none"><tspan dx="0 " x="0" y="9">parseUriPath(String): List&lt;String&gt;</tspan></text></g></g></g></g></svg>